<?xml version="1.0" standalone="no"?>
<!DOCTYPE svg PUBLIC "-//W3C//DTD SVG 20010904//EN"
 "http://www.w3.org/TR/2001/REC-SVG-20010904/DTD/svg10.dtd">
<svg version="1.0" xmlns="http://www.w3.org/2000/svg"
 width="512.000000pt" height="512.000000pt" viewBox="0 0 512.000000 512.000000"
 preserveAspectRatio="xMidYMid meet">
<metadata>
Created by potrace 1.11, written by Peter Selinger 2001-2013
</metadata>
<g transform="translate(0.000000,512.000000) scale(0.100000,-0.100000)"
fill="#000000" stroke="none">
<path d="M0 2560 l0 -2560 2560 0 2560 0 0 2560 0 2560 -2560 0 -2560 0 0
-2560z m1625 123 c229 -592 412 -1050 432 -1081 35 -55 74 -85 136 -104 31 -9
37 -15 37 -40 l0 -28 -375 0 -375 0 0 29 c0 27 2 29 62 35 73 9 116 25 142 54
35 40 19 111 -101 432 l-109 295 -390 3 -390 2 -82 -215 c-126 -328 -139 -430
-63 -506 39 -39 82 -56 174 -66 55 -6 57 -7 57 -34 l0 -29 -305 0 -305 0 0 28
c0 24 7 32 50 52 61 29 129 98 165 170 15 29 198 494 407 1034 209 539 382
984 384 988 3 5 15 8 28 8 20 0 56 -88 421 -1027z m1095 975 c0 -21 -6 -29
-25 -33 -14 -3 -37 -7 -51 -11 -15 -3 -39 -18 -55 -34 -35 -34 -37 -65 -10
-165 23 -87 471 -1457 480 -1467 3 -4 93 269 198 606 l192 614 -55 165 c-33
99 -67 182 -85 207 -31 43 -83 80 -111 80 -14 0 -18 8 -18 33 l0 32 360 0 360
0 0 -27 c0 -30 -6 -33 -95 -42 -119 -11 -146 -60 -110 -196 26 -99 470 -1470
476 -1470 9 0 418 1296 435 1380 17 83 14 153 -11 200 -27 52 -76 74 -217 95
-33 5 -38 9 -38 34 l0 27 305 0 305 -1 0 -31 c0 -26 -5 -33 -27 -38 -67 -17
-150 -96 -187 -176 -14 -30 -163 -499 -333 -1042 -306 -984 -308 -988 -334
-988 -26 0 -30 9 -274 738 -280 832 -307 910 -312 897 -94 -307 -495 -1605
-499 -1617 -3 -12 -15 -18 -32 -18 -27 0 -29 6 -372 1027 -210 625 -357 1046
-375 1077 -32 53 -107 105 -152 106 -19 0 -23 6 -23 33 l0 32 345 0 345 0 0
-27z"/>
<path d="M904 2823 l-181 -468 355 -3 c195 -1 357 0 359 2 6 5 -340 935 -347
936 -3 0 -87 -210 -186 -467z"/>
</g>
</svg>
